<svg width="92" height="44" viewBox="0 0 92 44" fill="none" xmlns="http://www.w3.org/2000/svg">
<path d="M79.0928 10.4863H84.901C86.9518 10.4863 88.6441 11.2177 89.9779 12.6806C91.3259 14.1147 92 15.893 92 18.0155C92 20.1381 91.3259 21.9236 89.9779 23.372C88.6441 24.8205 86.9518 25.5447 84.901 25.5447H79.0928V10.4863ZM80.5986 24.1249H84.901C86.5503 24.1249 87.8984 23.537 88.9453 22.361C90.0065 21.1706 90.5372 19.7222 90.5372 18.0155C90.5372 16.3089 90.0065 14.8604 88.9453 13.6701C87.8984 12.4941 86.5503 11.9061 84.901 11.9061H80.5986V24.1249Z" fill="#1DB0EB"/>
<path d="M68.9806 18.3816H76.5098V19.156C76.5098 21.0204 75.843 22.5979 74.5092 23.8886C73.1611 25.165 71.3756 25.8032 69.1527 25.8032C66.8581 25.8032 64.9722 25.0503 63.4951 23.5445C62.0036 22.0243 61.2578 20.1814 61.2578 18.0159C61.2578 15.8503 62.0036 14.0075 63.4951 12.4873C64.9722 10.9814 66.8581 10.2285 69.1527 10.2285C70.5295 10.2285 71.8059 10.5655 72.9819 11.2396C74.1435 11.9136 75.0398 12.81 75.6709 13.9286L74.3371 14.703C73.8639 13.7852 73.1611 13.0538 72.2289 12.5088C71.2968 11.9638 70.2713 11.6913 69.1527 11.6913C67.2597 11.6913 65.7251 12.3008 64.5492 13.5199C63.3588 14.7532 62.7637 16.2519 62.7637 18.0159C62.7637 19.7799 63.3588 21.2785 64.5492 22.5119C65.7251 23.7309 67.2597 24.3404 69.1527 24.3404C70.845 24.3404 72.2003 23.9173 73.2185 23.0712C74.2224 22.2107 74.8032 21.1208 74.961 19.8014H68.9806V18.3816Z" fill="#1DB0EB"/>
<path d="M57.125 17.7359C57.8707 18.0514 58.4587 18.5318 58.889 19.1772C59.3192 19.8225 59.5343 20.5468 59.5343 21.3499C59.5343 22.5115 59.1256 23.5011 58.3081 24.3186C57.4907 25.136 56.5011 25.5447 55.3395 25.5447H48.7783V10.4863H54.8447C55.949 10.4863 56.9027 10.8879 57.7058 11.691C58.4946 12.4798 58.889 13.4263 58.889 14.5306C58.889 15.936 58.301 17.0045 57.125 17.7359ZM54.8447 11.9061H50.2842V17.1551H54.8447C55.5331 17.1551 56.1283 16.9041 56.6302 16.4021C57.1322 15.8715 57.3831 15.2477 57.3831 14.5306C57.3831 13.8279 57.1322 13.2112 56.6302 12.6806C56.1283 12.1643 55.5331 11.9061 54.8447 11.9061ZM50.2842 24.1249H55.3395C56.0852 24.1249 56.7163 23.8596 57.2325 23.329C57.7632 22.7984 58.0285 22.1387 58.0285 21.3499C58.0285 20.5755 57.7632 19.9229 57.2325 19.3923C56.7163 18.8473 56.0852 18.5748 55.3395 18.5748H50.2842V24.1249Z" fill="#1DB0EB"/>
<path d="M15.8114 12.6519V21.0215C15.8114 21.1998 15.7406 21.3707 15.6145 21.4968C15.4885 21.6229 15.3175 21.6937 15.1392 21.6937H13.7947C13.6164 21.6937 13.4454 21.6229 13.3193 21.4968C13.1932 21.3707 13.1224 21.1998 13.1224 21.0215V12.6519C13.1224 12.4737 13.1932 12.3027 13.3193 12.1766C13.4454 12.0505 13.6164 11.9797 13.7947 11.9797H15.1392C15.3175 11.9797 15.4885 12.0505 15.6145 12.1766C15.7406 12.3027 15.8114 12.4737 15.8114 12.6519ZM39.6629 26.4532C39.6629 27.816 39.122 29.1231 38.159 30.0873C37.196 31.0516 35.8896 31.5942 34.5269 31.596H18.7626L11.9191 37.7807C11.6239 38.0462 11.258 38.2204 10.8658 38.282C10.4735 38.3436 10.0719 38.29 9.7095 38.1277C9.34715 37.9654 9.03971 37.7013 8.82453 37.3676C8.60936 37.034 8.49569 36.645 8.49734 36.2479V31.596C7.13457 31.5942 5.82823 31.0516 4.86523 30.0873C3.90224 29.1231 3.36134 27.816 3.36135 26.4532V11.8789C3.35958 11.2029 3.49107 10.5333 3.74831 9.90825C4.00554 9.28319 4.38347 8.71497 4.86048 8.23609C5.33749 7.75721 5.90422 7.37706 6.52826 7.11737C7.15231 6.85769 7.82142 6.72358 8.49734 6.7227H34.5C35.1753 6.72004 35.8446 6.85044 36.4696 7.10643C37.0945 7.36243 37.6629 7.73902 38.1424 8.21469C38.6218 8.69036 39.0028 9.25581 39.2637 9.87874C39.5246 10.5017 39.6602 11.1699 39.6629 11.8452V26.4532ZM31.2329 18.0905C31.2318 17.7922 31.1622 17.4983 31.0293 17.2313C30.8964 16.9644 30.7038 16.7316 30.4665 16.551C30.6401 16.2556 30.7306 15.9188 30.7287 15.5762C30.7288 15.2027 30.6202 14.8372 30.4161 14.5245C30.2119 14.2117 29.9211 13.9651 29.5791 13.8149C29.6812 13.5794 29.7338 13.3254 29.7337 13.0687C29.7376 12.6496 29.6035 12.2408 29.352 11.9055C29.1005 11.5702 28.7456 11.327 28.3422 11.2133L27.3069 10.8436C24.5097 9.94317 21.5183 9.83151 18.6618 10.5209C18.4835 10.5584 18.3274 10.6651 18.2278 10.8176C18.1282 10.9702 18.0932 11.156 18.1307 11.3343C18.1681 11.5126 18.2749 11.6687 18.4274 11.7683C18.58 11.8679 18.7658 11.9029 18.9441 11.8654C21.5635 11.2067 24.3143 11.2882 26.8901 12.1007L27.9724 12.4839C28.115 12.5147 28.241 12.5977 28.3256 12.7165C28.4101 12.8354 28.4472 12.9816 28.4295 13.1264C28.4119 13.2713 28.3407 13.4042 28.23 13.4993C28.1193 13.5943 27.9771 13.6446 27.8313 13.6402H26.5405C26.3623 13.6402 26.1913 13.711 26.0652 13.8371C25.9391 13.9631 25.8683 14.1341 25.8683 14.3124C25.8683 14.4907 25.9391 14.6617 26.0652 14.7878C26.1913 14.9138 26.3623 14.9847 26.5405 14.9847H28.7993C28.8809 14.9759 28.9635 14.9844 29.0416 15.0096C29.1197 15.0348 29.1916 15.0762 29.2527 15.131C29.3138 15.1859 29.3626 15.253 29.3961 15.3279C29.4295 15.4029 29.4468 15.4841 29.4468 15.5662C29.4468 15.6482 29.4295 15.7294 29.3961 15.8044C29.3626 15.8793 29.3138 15.9464 29.2527 16.0013C29.1916 16.0561 29.1197 16.0975 29.0416 16.1227C28.9635 16.1479 28.8809 16.1564 28.7993 16.1476H26.5405C26.3623 16.1476 26.1913 16.2185 26.0652 16.3445C25.9391 16.4706 25.8683 16.6416 25.8683 16.8199C25.8683 16.9982 25.9391 17.1692 26.0652 17.2953C26.1913 17.4213 26.3623 17.4921 26.5405 17.4921H29.3035C29.4586 17.4921 29.6074 17.5538 29.717 17.6634C29.8267 17.7731 29.8884 17.9219 29.8884 18.077C29.8884 18.2321 29.8267 18.3809 29.717 18.4906C29.6074 18.6002 29.4586 18.6619 29.3035 18.6619H26.5405C26.3623 18.6619 26.1913 18.7327 26.0652 18.8588C25.9391 18.9848 25.8683 19.1558 25.8683 19.3341C25.8683 19.5124 25.9391 19.6834 26.0652 19.8095C26.1913 19.9355 26.3623 20.0064 26.5405 20.0064H28.2951C28.4502 20.0064 28.599 20.068 28.7087 20.1777C28.8184 20.2873 28.88 20.4361 28.88 20.5912V20.84C28.88 21.061 28.7922 21.2731 28.6358 21.4294C28.4795 21.5857 28.2675 21.6735 28.0464 21.6735H23.5289C23.4205 21.6737 23.3138 21.7001 23.2178 21.7504C23.1218 21.8008 23.0394 21.8736 22.9776 21.9626C22.9152 22.0529 22.8758 22.157 22.8629 22.266C22.85 22.375 22.864 22.4855 22.9037 22.5878L24.47 26.6818C24.5397 26.9386 24.5164 27.2117 24.4044 27.4531C24.2924 27.6944 24.0987 27.8884 23.8576 28.0009C23.6165 28.1135 23.3434 28.1372 23.0865 28.0681C22.8296 27.9989 22.6053 27.8413 22.4533 27.623L20.7726 24.6046C20.613 24.2883 20.3924 24.0068 20.1236 23.776C19.8548 23.5453 19.5431 23.3699 19.2063 23.2601C18.7268 23.094 18.2984 22.8068 17.9626 22.4265L17.1425 21.1492C17.1461 21.1067 17.1461 21.064 17.1425 21.0215V12.6519C17.1425 12.1171 16.93 11.6041 16.5518 11.2259C16.1736 10.8477 15.6606 10.6352 15.1257 10.6352H13.7812C13.2464 10.6352 12.7334 10.8477 12.3552 11.2259C11.977 11.6041 11.7645 12.1171 11.7645 12.6519V21.0215C11.7645 21.5563 11.977 22.0693 12.3552 22.4475C12.7334 22.8257 13.2464 23.0382 13.7812 23.0382H15.1257C15.5969 23.0373 16.0523 22.868 16.4097 22.5609L16.7593 23.1525C17.2631 23.8033 17.945 24.2937 18.7223 24.5642C18.9002 24.6207 19.0651 24.7123 19.2071 24.8335C19.3491 24.9547 19.4654 25.1032 19.5491 25.2701L21.2298 28.2885C21.4412 28.6813 21.7557 29.009 22.1395 29.2365C22.5233 29.4639 22.9618 29.5824 23.4079 29.5792C23.7932 29.5814 24.1735 29.4915 24.5171 29.317C25.0689 29.0446 25.4986 28.5752 25.7213 28.0015C25.9441 27.4278 25.9437 26.7914 25.7204 26.218L24.5036 23.0382H28.0464C28.3361 23.0409 28.6235 22.9859 28.8918 22.8765C29.1601 22.767 29.4039 22.6053 29.6091 22.4007C29.8143 22.1962 29.9768 21.9528 30.087 21.6849C30.1973 21.4169 30.2532 21.1297 30.2514 20.84V20.5845C30.251 20.3285 30.2008 20.0751 30.1035 19.8383C30.4391 19.6854 30.7238 19.4395 30.924 19.1297C31.1242 18.8199 31.2314 18.4593 31.2329 18.0905Z" fill="#1DB0EB"/>
</svg>
